<svg xmlns="http://www.w3.org/2000/svg" xmlns:xlink="http://www.w3.org/1999/xlink" width="1920" zoomAndPan="magnify" viewBox="0 0 1440 809.999993" height="1080" preserveAspectRatio="xMidYMid meet" version="1.0"><defs><filter x="0%" y="0%" width="100%" height="100%" id="339e52556f"><feColorMatrix values="0 0 0 0 1 0 0 0 0 1 0 0 0 0 1 0 0 0 1 0" color-interpolation-filters="sRGB"/></filter><mask id="981614ebf8"><g filter="url(#339e52556f)"><rect x="-144" width="1728" fill="#000000" y="-80.999999" height="971.999992" fill-opacity="0.3"/></g></mask><clipPath id="27a2e08ffc"><path d="M 0.640625 0 L 823.359375 0 L 823.359375 452.640625 L 0.640625 452.640625 Z M 0.640625 0 " clip-rule="nonzero"/></clipPath><clipPath id="bd8c5bd3a3"><rect x="0" width="824" y="0" height="453"/></clipPath><clipPath id="fa5ed03461"><path d="M 267 69.828125 L 1173 69.828125 L 1173 738 L 267 738 Z M 267 69.828125 " clip-rule="nonzero"/></clipPath></defs><g mask="url(#981614ebf8)"><g transform="matrix(1, 0, 0, 1, 308, 156)"><g clip-path="url(#bd8c5bd3a3)"><g clip-path="url(#27a2e08ffc)"><path fill="#191919" d="M 740.996094 41.316406 L 658.746094 82.441406 L 412 0.191406 L 165.25 82.441406 L 83 41.316406 L 0.75 411.441406 L 124.125 411.441406 C 124.125 411.441406 288.625 452.566406 412 452.566406 C 535.375 452.566406 699.871094 411.441406 699.871094 411.441406 L 823.246094 411.441406 Z M 740.996094 41.316406 " fill-opacity="1" fill-rule="nonzero"/></g></g></g></g><g clip-path="url(#fa5ed03461)"><path fill="#191919" d="M 267.625 599.640625 C 267.625 603.054688 268.53125 606.386719 270.214844 609.386719 C 327.421875 709.855469 483.40625 736.175781 519.019531 737.328125 C 519.226562 737.328125 519.433594 737.328125 519.636719 737.328125 C 525.929688 737.328125 531.851562 734.324219 535.554688 729.226562 L 571.539062 679.792969 C 474.523438 654.707031 424.96875 612.144531 422.089844 609.632812 C 413.945312 602.480469 413.207031 590.101562 420.363281 581.957031 C 424.226562 577.515625 429.65625 575.253906 435.125 575.253906 C 439.730469 575.253906 444.378906 576.859375 448.082031 580.105469 C 448.984375 580.886719 540.28125 658.65625 720.039062 658.65625 C 899.507812 658.65625 990.765625 581.21875 991.957031 580.148438 C 995.699219 576.859375 1000.347656 575.253906 1004.953125 575.253906 C 1010.382812 575.253906 1015.808594 577.515625 1019.675781 581.917969 C 1026.871094 590.058594 1026.089844 602.480469 1017.949219 609.675781 C 1015.109375 612.226562 965.515625 654.75 868.5 679.835938 L 904.484375 729.265625 C 908.1875 734.367188 914.109375 737.367188 920.398438 737.367188 C 920.605469 737.367188 920.8125 737.367188 921.015625 737.367188 C 956.550781 736.257812 1112.578125 709.9375 1169.78125 609.429688 C 1171.46875 606.386719 1172.371094 603.054688 1172.371094 599.640625 C 1172.371094 405.941406 1089.503906 181.894531 1048.011719 143.605469 C 968.640625 79.78125 844.8125 69.089844 839.546875 68.675781 C 838.933594 68.59375 838.316406 68.59375 837.699219 68.59375 C 830.089844 68.59375 823.179688 73.203125 820.015625 80.234375 C 819.808594 80.726562 817.09375 86.9375 814.050781 96.601562 C 865.867188 105.320312 929.449219 122.960938 987.023438 158.660156 C 996.234375 164.375 999.113281 176.507812 993.355469 185.761719 C 989.65625 191.765625 983.199219 195.054688 976.617188 195.054688 C 973.082031 195.054688 969.503906 194.109375 966.253906 192.09375 C 867.429688 130.695312 743.769531 127.609375 720 127.609375 C 696.226562 127.609375 572.605469 130.734375 473.660156 192.09375 C 470.453125 194.066406 466.875 195.011719 463.339844 195.011719 C 456.757812 195.011719 450.300781 191.722656 446.601562 185.71875 C 440.882812 176.464844 443.722656 164.375 452.933594 158.617188 C 510.507812 122.878906 574.128906 105.277344 625.90625 96.558594 C 622.863281 86.894531 620.148438 80.6875 619.941406 80.191406 C 616.734375 73.117188 609.703125 68.554688 602.050781 68.554688 C 601.519531 68.554688 600.941406 68.59375 600.40625 68.636719 C 595.144531 69.046875 471.316406 79.738281 392.972656 142.703125 C 350.492188 181.894531 267.625 405.941406 267.625 599.640625 Z M 353 534.457031 C 362.582031 431.109375 392.4375 330.519531 417.8125 266.652344 C 431.671875 273.5625 447.175781 277.261719 463.296875 277.261719 C 482.335938 277.261719 500.925781 271.957031 517.089844 261.882812 C 598.679688 211.296875 707.824219 209.859375 720 209.859375 C 732.171875 209.859375 841.316406 211.339844 922.949219 261.964844 C 939.070312 272 957.660156 277.304688 976.660156 277.304688 C 992.863281 277.304688 1008.449219 273.5625 1022.347656 266.613281 C 1047.597656 330.394531 1077.375 431.234375 1086.996094 534.5 C 1085.1875 532.074219 1083.296875 529.730469 1081.28125 527.425781 C 1062.035156 505.589844 1034.152344 493.003906 1004.910156 493.003906 C 980.15625 493.003906 956.300781 502.011719 937.671875 518.335938 C 936.109375 519.53125 864.101562 576.445312 720 576.445312 C 575.855469 576.445312 503.765625 519.488281 500.761719 517.0625 C 483.324219 501.929688 459.59375 493.085938 435.042969 493.085938 C 405.640625 493.085938 377.675781 505.792969 358.347656 527.917969 C 356.453125 530.015625 354.6875 532.195312 353 534.457031 Z M 353 534.457031 " fill-opacity="1" fill-rule="nonzero"/></g><path fill="#191919" d="M 592.140625 322.5 C 554.140625 322.5 523.296875 357.746094 523.296875 401.171875 C 523.296875 444.601562 554.101562 479.84375 592.140625 479.84375 C 630.183594 479.84375 660.984375 444.601562 660.984375 401.171875 C 660.984375 357.703125 630.183594 322.5 592.140625 322.5 Z M 847.855469 322.5 C 809.855469 322.5 779.011719 357.746094 779.011719 401.171875 C 779.011719 444.601562 809.816406 479.84375 847.855469 479.84375 C 885.894531 479.84375 916.699219 444.601562 916.699219 401.171875 C 916.699219 357.703125 885.855469 322.5 847.855469 322.5 Z M 847.855469 322.5 " fill-opacity="1" fill-rule="nonzero"/></svg>