<?xml version="1.0" standalone="no"?>
<!DOCTYPE svg PUBLIC "-//W3C//DTD SVG 20010904//EN"
 "http://www.w3.org/TR/2001/REC-SVG-20010904/DTD/svg10.dtd">
<svg version="1.0" xmlns="http://www.w3.org/2000/svg"
 width="512.000000pt" height="512.000000pt" viewBox="0 0 512.000000 512.000000"
 preserveAspectRatio="xMidYMid meet">

<g transform="translate(0.000000,512.000000) scale(0.100000,-0.100000)"
fill="#000000" stroke="none">
<path d="M2775 4473 c-31 -12 -263 -167 -612 -412 l-563 -394 0 -1107 0 -1107
563 -394 c402 -282 578 -399 617 -412 150 -52 319 23 388 171 l27 57 0 1685 0
1685 -27 57 c-31 67 -91 128 -156 158 -65 31 -170 37 -237 13z"/>
<path d="M681 3504 c-169 -45 -301 -180 -346 -351 -22 -85 -22 -1101 0 -1186
45 -173 178 -307 350 -352 46 -12 119 -15 327 -15 l268 0 0 960 0 960 -272 -1
c-205 0 -286 -4 -327 -15z"/>
<path d="M3465 3268 c-32 -17 -76 -61 -91 -90 -17 -32 -18 -91 -3 -121 6 -12
117 -129 247 -259 l237 -238 -237 -237 c-130 -131 -241 -248 -247 -260 -14
-28 -14 -88 0 -116 17 -32 60 -77 91 -93 32 -17 91 -18 121 -3 12 6 129 117
260 247 l237 237 238 -237 c130 -130 247 -241 259 -247 113 -57 269 99 212
212 -6 12 -117 129 -247 260 l-237 237 237 238 c130 130 241 247 247 259 14
28 14 88 0 116 -17 32 -60 77 -91 93 -32 17 -91 18 -121 3 -12 -6 -129 -117
-259 -247 l-238 -237 -237 237 c-131 130 -248 241 -260 247 -28 14 -92 14
-118 -1z"/>
</g>
</svg>
