<?xml version="1.0" standalone="no"?>
<!DOCTYPE svg PUBLIC "-//W3C//DTD SVG 20010904//EN"
 "http://www.w3.org/TR/2001/REC-SVG-20010904/DTD/svg10.dtd">
<svg version="1.0" xmlns="http://www.w3.org/2000/svg"
 width="512.000000pt" height="512.000000pt" viewBox="0 0 512.000000 512.000000"
 preserveAspectRatio="xMidYMid meet">

<g transform="translate(0.000000,512.000000) scale(0.100000,-0.100000)"
fill="#000000" stroke="none">
<path d="M2503 4792 c-18 -10 -63 -56 -100 -102 -126 -160 -247 -295 -422
-470 -270 -269 -468 -425 -668 -527 l-113 -57 0 -1076 0 -1076 113 -57 c200
-102 395 -255 663 -522 178 -178 316 -331 434 -483 86 -111 146 -135 230 -92
26 13 47 34 60 60 20 39 20 54 20 2170 0 2116 0 2131 -20 2170 -36 71 -128 99
-197 62z"/>
<path d="M4272 4169 c-42 -27 -64 -70 -64 -124 0 -55 11 -75 90 -160 485 -524
646 -1264 422 -1937 -90 -269 -227 -500 -428 -720 -76 -83 -95 -125 -82 -181
16 -73 69 -117 140 -117 61 0 94 21 180 115 782 852 784 2170 4 3025 -42 47
-91 93 -108 103 -42 24 -113 22 -154 -4z"/>
<path d="M78 3589 c-23 -12 -46 -35 -58 -59 -20 -38 -20 -57 -20 -970 0 -894
1 -932 19 -968 11 -22 35 -46 59 -60 39 -22 44 -22 431 -22 l391 0 0 1050 0
1050 -392 0 c-372 -1 -395 -2 -430 -21z"/>
<path d="M3655 3541 c-44 -20 -72 -54 -81 -101 -12 -57 4 -96 74 -177 168
-194 255 -403 269 -643 16 -276 -75 -537 -264 -757 -76 -89 -91 -124 -79 -187
9 -46 53 -91 104 -107 68 -20 108 -2 189 85 162 174 277 401 330 656 24 117
24 380 0 502 -48 242 -167 478 -326 650 -91 99 -137 115 -216 79z"/>
<path d="M3020 2560 c0 -280 3 -510 8 -510 4 0 33 20 64 45 269 211 303 604
76 859 -44 49 -126 116 -142 116 -3 0 -6 -229 -6 -510z"/>
</g>
</svg>
